<svg width="152" height="63" viewBox="0 0 152 63" fill="none" xmlns="http://www.w3.org/2000/svg">
<path d="M82.0435 8.52446L71.4775 10.792V2.2256L82.0435 0V8.52446Z" fill="#635BFF"/>
<path d="M39.1056 4.87065L28.8343 7.054L28.7922 40.6861C28.7922 46.9002 33.4648 51.4769 39.695 51.4769C43.1468 51.4769 45.6725 50.847 47.0617 50.0913V41.5678C45.7146 42.1136 39.0635 44.0451 39.0635 37.8309V22.9253H47.0617V13.982H39.0635L39.1056 4.87065Z" fill="#635BFF"/>
<path fill-rule="evenodd" clip-rule="evenodd" d="M151.543 32.498C151.543 21.7492 146.323 13.2677 136.346 13.2677C126.328 13.2677 120.266 21.7492 120.266 32.414C120.266 45.0523 127.422 51.4344 137.693 51.4344C142.703 51.4344 146.491 50.3007 149.354 48.7052V40.3077C146.491 41.7353 143.208 42.617 139.04 42.617C134.957 42.617 131.337 41.1894 130.874 36.2349H151.459C151.459 36.0035 151.474 35.4778 151.491 34.8721L151.491 34.8707L151.491 34.8693L151.491 34.8682C151.515 34.046 151.543 33.0776 151.543 32.498ZM130.747 28.5097C130.747 23.7645 133.652 21.7909 136.304 21.7909C138.872 21.7909 141.608 23.7645 141.608 28.5097H130.747Z" fill="#635BFF"/>
<path d="M14.2283 22.3797C11.9972 22.3797 10.6501 23.0095 10.6501 24.6471C10.6501 26.435 12.9684 27.2215 15.8446 28.1972C20.5333 29.7878 26.7045 31.8814 26.7306 39.6366C26.7306 47.1524 20.711 51.4771 11.9551 51.4771C8.3349 51.4771 4.37793 50.7634 0.46305 49.0839V39.0908C3.99907 41.0222 8.46118 42.4498 11.9551 42.4498C14.3124 42.4498 15.9963 41.82 15.9963 39.8886C15.9963 37.9081 13.4832 37.0029 10.4492 35.91C5.82866 34.2457 0 32.1462 0 25.1509C0 17.7191 5.68288 13.2684 14.2283 13.2684C17.7222 13.2684 21.174 13.8143 24.6679 15.1998V25.0669C21.4687 23.3454 17.4275 22.3797 14.2283 22.3797Z" fill="#635BFF"/>
<path d="M60.1542 17.0888L59.4807 13.9817H50.3881V50.7209H60.9119V25.8222C63.3955 22.5892 67.6051 23.177 68.91 23.6389V13.9817C67.563 13.4779 62.6378 12.5541 60.1542 17.0888Z" fill="#635BFF"/>
<path d="M71.4768 13.9823H82.0428V50.7214H71.4768V13.9823Z" fill="#635BFF"/>
<path fill-rule="evenodd" clip-rule="evenodd" d="M95.7656 16.5427C97.239 15.1991 99.891 13.2677 104.016 13.2677C111.383 13.2677 118.329 19.9017 118.371 32.0782C118.371 45.3882 111.509 51.4345 103.974 51.4345C100.27 51.4345 98.0388 49.8809 96.5234 48.7892L96.4813 60.6717L85.9574 62.8971V13.9395H95.2184L95.7656 16.5427ZM96.5236 40.2257C97.5339 41.3175 99.0073 42.1993 101.491 42.1993C105.364 42.1993 107.974 38.0001 107.974 32.3731C107.974 26.8721 105.322 22.5889 101.491 22.5889C99.0915 22.5889 97.576 23.4287 96.4816 24.6465L96.5236 40.2257Z" fill="#635BFF"/>
</svg>
